# Blender v2.76 (sub 0) OBJ File: 'dummy_assets.blend'
# www.blender.org
mtllib event_blitz.mtl
o event_blitz_BezierCurve.005_Mesh.002
v -0.025188 1.030325 -0.001601
v -0.054427 0.519905 0.118307
v -0.046447 0.516386 0.132672
v -0.012983 1.049278 0.017460
v -0.004671 1.011373 -0.011159
v -0.039993 0.523424 0.110452
v 0.007534 1.030325 0.007903
v -0.032013 0.519905 0.124817
v -0.019201 0.264651 0.016268
v -0.014867 0.261613 0.023945
v -0.011429 0.267688 0.012108
v -0.007095 0.264651 0.019785
v -0.024801 0.019730 0.054788
v -0.024147 0.020460 0.055895
v -0.023655 0.019000 0.054203
v -0.023002 0.019730 0.055310
v -0.042644 0.505703 0.115436
v -0.011324 0.452471 0.197347
v -0.015483 0.451370 0.200222
v -0.049579 0.505280 0.118214
v -0.041967 0.512079 0.119205
v -0.010505 0.456351 0.200512
v -0.048902 0.511656 0.121983
v -0.014665 0.455250 0.203386
v 0.019315 0.423362 0.213924
v 0.017390 0.422223 0.215622
v 0.020928 0.423481 0.216163
v 0.019003 0.422342 0.217860
v 0.014511 0.384977 0.184396
v 0.014222 0.384824 0.184657
v 0.014794 0.384747 0.184610
v 0.014505 0.384595 0.184870
v -0.069580 0.744665 -0.033288
v -0.006759 0.715965 -0.110124
v 0.000339 0.717449 -0.107917
v -0.060858 0.748490 -0.027478
v -0.070072 0.754683 -0.037804
v -0.005966 0.721685 -0.115001
v -0.061349 0.758508 -0.031994
v 0.001131 0.723170 -0.112793
v -0.004728 0.651682 -0.153549
v -0.000728 0.651113 -0.153177
v -0.004012 0.652407 -0.157598
v -0.000012 0.651837 -0.157226
v -0.026175 0.567437 -0.145838
v -0.025591 0.567303 -0.145786
v -0.026114 0.567328 -0.146455
v -0.025530 0.567194 -0.146403
v 0.002196 1.030258 -0.018777
v -0.089329 0.626885 -0.052592
v -0.102111 0.629212 -0.048985
v -0.014330 1.045621 -0.011018
v 0.007691 1.015030 -0.001345
v -0.087150 0.607565 -0.042503
v -0.008834 1.030393 0.006414
v -0.099932 0.609892 -0.038896
v -0.088212 0.511417 -0.133398
v -0.095267 0.510082 -0.132109
v -0.086799 0.505071 -0.126908
v -0.093853 0.503736 -0.125620
v -0.094401 0.232356 -0.100778
v -0.095447 0.232547 -0.100573
v -0.094182 0.232913 -0.099761
v -0.095228 0.233104 -0.099555
v -0.011785 1.030325 0.013335
v 0.062854 0.712605 0.031535
v 0.071795 0.710414 0.026568
v 0.000080 1.042123 0.005738
v -0.017735 1.018528 0.000563
v 0.057964 0.714796 0.022550
v -0.005869 1.030325 -0.007034
v 0.066906 0.712605 0.017583
v -0.000662 0.553717 0.009608
v 0.004116 0.551827 0.006910
v -0.003251 0.555608 0.004770
v 0.001527 0.553717 0.002072
v 0.023315 0.401262 0.013093
v 0.024004 0.401717 0.012687
v 0.022951 0.400808 0.012381
v 0.023640 0.401262 0.011974
v -0.012983 0.979522 -0.001166
v 0.205438 1.018081 0.092216
v -0.096411 1.018081 0.149931
v -0.282966 1.018082 -0.001166
v -0.096411 1.018081 -0.152263
v 0.205438 1.018081 -0.094548
v 0.070444 1.080474 0.149931
v -0.231404 1.080474 0.092216
v -0.231404 1.080474 -0.094548
v 0.070444 1.080474 -0.152263
v 0.256999 1.080474 -0.001166
v -0.012983 1.119034 -0.001166
v -0.062021 0.989939 0.087646
v 0.115400 0.989939 0.053722
v 0.066364 1.012604 0.142535
v 0.243785 1.012604 -0.001166
v 0.115400 0.989939 -0.056054
v -0.171675 0.989940 -0.001166
v -0.220714 1.012604 0.087646
v -0.062021 0.989939 -0.089978
v -0.220714 1.012604 -0.089978
v 0.066364 1.012604 -0.144867
v 0.274094 1.049278 0.053723
v 0.274094 1.049278 -0.056054
v -0.012983 1.049278 0.176459
v 0.164440 1.049278 0.142536
v -0.300061 1.049278 0.053723
v -0.190407 1.049278 0.142536
v -0.190407 1.049278 -0.144868
v -0.300061 1.049278 -0.056054
v 0.164440 1.049278 -0.144868
v -0.012983 1.049278 -0.178791
v 0.194747 1.085951 0.087646
v -0.092330 1.085952 0.142535
v -0.269752 1.085951 -0.001166
v -0.092330 1.085952 -0.144867
v 0.194747 1.085951 -0.089978
v 0.036054 1.108617 0.087646
v 0.145708 1.108616 -0.001166
v -0.141367 1.108617 0.053722
v -0.141367 1.108617 -0.056054
v 0.036054 1.108617 -0.089978
vt 0.082332 0.346825
vt 0.082332 0.001001
vt 0.001001 0.001001
vt 0.001001 0.346825
vt 0.001001 0.433782
vt 0.332332 0.433782
vt 0.332332 0.348827
vt 0.001001 0.348827
vt 0.165666 0.346825
vt 0.165666 0.001001
vt 0.084334 0.001001
vt 0.084334 0.346825
vt 0.001001 0.520738
vt 0.332332 0.520738
vt 0.332332 0.435784
vt 0.001001 0.435784
vt 0.832332 0.694651
vt 0.832332 0.348827
vt 0.792668 0.348827
vt 0.792668 0.694651
vt 0.334334 0.694651
vt 0.665666 0.694651
vt 0.665666 0.653175
vt 0.334334 0.653175
vt 0.540666 0.346825
vt 0.540666 0.001001
vt 0.501001 0.001001
vt 0.501001 0.346825
vt 0.167668 0.216390
vt 0.498999 0.216390
vt 0.498999 0.174914
vt 0.167668 0.174914
vt 0.498999 0.564216
vt 0.498999 0.218392
vt 0.459334 0.218392
vt 0.459334 0.564216
vt 0.001001 0.564216
vt 0.332332 0.564216
vt 0.332332 0.522740
vt 0.001001 0.522740
vt 0.457332 0.564216
vt 0.457332 0.218392
vt 0.417668 0.218392
vt 0.417668 0.564216
vt 0.001001 0.607695
vt 0.332332 0.607695
vt 0.332332 0.566218
vt 0.001001 0.566218
vt 0.415666 0.564216
vt 0.415666 0.218392
vt 0.376001 0.218392
vt 0.376001 0.564216
vt 0.001001 0.651173
vt 0.332332 0.651173
vt 0.332332 0.609697
vt 0.001001 0.609697
vt 0.373999 0.564216
vt 0.373999 0.218392
vt 0.334334 0.218392
vt 0.334334 0.564216
vt 0.001001 0.694651
vt 0.332332 0.694651
vt 0.332332 0.653175
vt 0.001001 0.653175
vt 0.665666 0.520738
vt 0.665666 0.348827
vt 0.626001 0.348827
vt 0.626001 0.520738
vt 0.167668 0.346825
vt 0.332332 0.346825
vt 0.332332 0.305349
vt 0.167668 0.305349
vt 0.623999 0.520738
vt 0.623999 0.348827
vt 0.584334 0.348827
vt 0.584334 0.520738
vt 0.167668 0.303347
vt 0.332332 0.303347
vt 0.332332 0.261871
vt 0.167668 0.261871
vt 0.582332 0.520738
vt 0.582332 0.348827
vt 0.542668 0.348827
vt 0.542668 0.520738
vt 0.167668 0.259869
vt 0.332332 0.259869
vt 0.332332 0.218392
vt 0.167668 0.218392
vt 0.540666 0.520738
vt 0.540666 0.348827
vt 0.501001 0.348827
vt 0.501001 0.520738
vt 0.501001 0.564216
vt 0.665666 0.564216
vt 0.665666 0.522740
vt 0.501001 0.522740
vt 0.707332 0.346825
vt 0.707332 0.001001
vt 0.667668 0.001001
vt 0.667668 0.346825
vt 0.001001 0.781608
vt 0.332332 0.781608
vt 0.332332 0.740131
vt 0.001001 0.740131
vt 0.707332 0.694651
vt 0.707332 0.348827
vt 0.667668 0.348827
vt 0.667668 0.694651
vt 0.334334 0.781608
vt 0.665666 0.781608
vt 0.665666 0.740131
vt 0.334334 0.740131
vt 0.748999 0.346825
vt 0.748999 0.001001
vt 0.709334 0.001001
vt 0.709334 0.346825
vt 0.001001 0.825086
vt 0.332332 0.825086
vt 0.332332 0.783610
vt 0.001001 0.783610
vt 0.748999 0.694651
vt 0.748999 0.348827
vt 0.709334 0.348827
vt 0.709334 0.694651
vt 0.334334 0.825086
vt 0.665666 0.825086
vt 0.665666 0.783610
vt 0.334334 0.783610
vt 0.790666 0.346825
vt 0.790666 0.001001
vt 0.751001 0.001001
vt 0.751001 0.346825
vt 0.001001 0.868564
vt 0.332332 0.868564
vt 0.332332 0.827088
vt 0.001001 0.827088
vt 0.790666 0.694651
vt 0.790666 0.348827
vt 0.751001 0.348827
vt 0.751001 0.694651
vt 0.334334 0.868564
vt 0.665666 0.868564
vt 0.665666 0.827088
vt 0.334334 0.827088
vt 0.832332 0.346825
vt 0.832332 0.001001
vt 0.792668 0.001001
vt 0.792668 0.346825
vt 0.167668 0.085956
vt 0.498999 0.085956
vt 0.498999 0.001001
vt 0.167668 0.001001
vt 0.873999 0.346825
vt 0.873999 0.001001
vt 0.834334 0.001001
vt 0.834334 0.346825
vt 0.167668 0.172912
vt 0.498999 0.172912
vt 0.498999 0.087958
vt 0.167668 0.087958
vt 0.915666 0.346825
vt 0.915666 0.001001
vt 0.876001 0.001001
vt 0.876001 0.346825
vt 0.001001 0.912042
vt 0.332332 0.912042
vt 0.332332 0.870566
vt 0.001001 0.870566
vt 0.915666 0.694651
vt 0.915666 0.348827
vt 0.876001 0.348827
vt 0.876001 0.694651
vt 0.334334 0.912042
vt 0.665666 0.912042
vt 0.665666 0.870566
vt 0.334334 0.870566
vt 0.957332 0.346825
vt 0.957332 0.001001
vt 0.917668 0.001001
vt 0.917668 0.346825
vt 0.001001 0.955521
vt 0.332332 0.955521
vt 0.332332 0.914044
vt 0.001001 0.914044
vt 0.957332 0.694651
vt 0.957332 0.348827
vt 0.917668 0.348827
vt 0.917668 0.694651
vt 0.334334 0.955521
vt 0.665666 0.955521
vt 0.665666 0.914044
vt 0.334334 0.914044
vt 0.998999 0.346825
vt 0.998999 0.001001
vt 0.959334 0.001001
vt 0.959334 0.346825
vt 0.001001 0.998999
vt 0.332332 0.998999
vt 0.332332 0.957523
vt 0.001001 0.957523
vt 0.998999 0.694651
vt 0.998999 0.348827
vt 0.959334 0.348827
vt 0.959334 0.694651
vt 0.334334 0.738129
vt 0.665666 0.738129
vt 0.665666 0.696653
vt 0.334334 0.696653
vt 0.665666 0.346825
vt 0.665666 0.001001
vt 0.626001 0.001001
vt 0.626001 0.346825
vt 0.001001 0.738129
vt 0.332332 0.738129
vt 0.332332 0.696653
vt 0.001001 0.696653
vt 0.873999 0.694651
vt 0.873999 0.348827
vt 0.834334 0.348827
vt 0.834334 0.694651
vt 0.334334 0.651173
vt 0.665666 0.651173
vt 0.665666 0.609697
vt 0.334334 0.609697
vt 0.623999 0.346825
vt 0.623999 0.001001
vt 0.584334 0.001001
vt 0.584334 0.346825
vt 0.334334 0.607695
vt 0.665666 0.607695
vt 0.665666 0.566218
vt 0.334334 0.566218
vt 0.582332 0.346825
vt 0.582332 0.001001
vt 0.542668 0.001001
vt 0.542668 0.346825
vt 0.334334 0.998999
vt 0.665666 0.998999
vt 0.665666 0.957523
vt 0.334334 0.957523
vt 0.000000 0.000000
vn -0.997500 0.062300 0.033600
vn -0.988700 0.003500 -0.150000
vn -0.276600 -0.128700 0.952300
vn -0.272000 0.222100 0.936300
vn 0.270200 -0.248000 -0.930300
vn 0.278800 0.033300 -0.959800
vn 0.824300 0.062300 0.562700
vn 0.915200 0.003500 0.402900
vn -0.912200 -0.047000 -0.407000
vn -0.277700 -0.095400 0.955900
vn 0.276000 0.144300 -0.950300
vn 0.988300 -0.047000 0.145000
vn -0.848100 -0.062800 -0.526100
vn -0.276300 0.136200 0.951400
vn 0.274700 -0.174200 -0.945600
vn 0.998000 -0.062800 0.010100
vn 0.595800 -0.549300 -0.586000
vn 0.441900 -0.423200 -0.790900
vn -0.755900 -0.654500 0.018600
vn -0.747200 -0.654000 -0.118200
vn 0.760200 0.634100 0.141500
vn 0.670200 0.712300 0.208700
vn -0.556500 0.555400 0.617900
vn -0.465300 0.340000 0.817200
vn 0.342100 0.262500 -0.902300
vn -0.898500 -0.415900 0.140600
vn 0.924000 0.279400 0.261000
vn 0.103900 -0.173200 0.979400
vn 0.048300 0.605400 -0.794400
vn -0.997800 0.060000 0.029500
vn 0.992300 -0.109000 -0.059500
vn 0.016900 -0.659000 0.751900
vn -0.493100 -0.866700 -0.075100
vn -0.711200 -0.667400 0.220600
vn 0.732500 -0.325400 0.598000
vn 0.636300 -0.424400 0.644200
vn -0.600300 0.418900 -0.681300
vn -0.466700 0.516000 -0.718300
vn 0.537700 0.841600 0.051000
vn 0.729300 0.633900 -0.257700
vn -0.853500 -0.041100 0.519500
vn 0.710600 -0.283500 0.644000
vn -0.497300 0.241400 -0.833300
vn 0.745200 0.038800 -0.665800
vn -0.760200 0.248400 0.600300
vn 0.615800 -0.113800 0.779600
vn -0.624000 0.060100 -0.779100
vn 0.714300 -0.296600 -0.633800
vn 0.130000 0.055100 -0.990000
vn 0.499200 0.192100 -0.844900
vn -0.912000 0.270000 -0.308600
vn -0.892800 0.222300 -0.391800
vn 0.887800 -0.247600 0.388000
vn 0.756100 -0.319400 0.571200
vn -0.641700 0.057900 0.764800
vn -0.537800 -0.309200 0.784300
vn 0.524400 0.235700 -0.818200
vn -0.728300 0.128500 -0.673100
vn 0.906600 -0.185100 0.379200
vn -0.661100 -0.182500 0.727800
vn 0.468700 -0.113100 -0.876100
vn -0.712000 -0.078600 -0.697700
vn 0.918800 0.014700 0.394500
vn -0.601100 0.079400 0.795200
vn 0.033600 0.062300 0.997500
vn -0.150100 0.003500 0.988700
vn 0.952300 -0.128700 0.276600
vn 0.936300 0.222100 0.272000
vn -0.930300 -0.248000 -0.270200
vn -0.959800 0.033300 -0.278800
vn 0.562700 0.062300 -0.824300
vn 0.402900 0.003500 -0.915200
vn -0.407000 -0.047000 0.912200
vn 0.955900 -0.095400 0.277700
vn -0.950300 0.144300 -0.276000
vn 0.145100 -0.047000 -0.988300
vn -0.526100 -0.062800 0.848100
vn 0.951400 0.136200 0.276300
vn -0.945700 -0.174000 -0.274500
vn 0.010200 -0.062800 -0.998000
vn 0.001500 -1.000000 0.000000
vn 0.128800 -0.979300 0.156400
vn -0.047500 -0.967600 0.248000
vn 0.425200 -0.758200 0.494400
vn 0.493500 -0.869700 -0.000000
vn -0.159600 -0.987200 0.000000
vn -0.047500 -0.967600 -0.248000
vn 0.128800 -0.979300 -0.156400
vn 0.904600 -0.007600 0.426300
vn -0.142500 -0.696000 0.703800
vn 0.123800 -0.770800 0.625000
vn 0.000000 -0.000000 1.000000
vn -0.587200 -0.809500 -0.000000
vn -0.365500 -0.825100 0.430700
vn -0.904600 0.007600 0.426300
vn -0.142500 -0.696000 -0.703800
vn -0.365500 -0.825100 -0.430700
vn -0.419600 -0.006600 -0.907700
vn 0.425200 -0.758200 -0.494400
vn 0.123800 -0.770800 -0.625000
vn 0.419600 0.006600 -0.907700
vn 0.419600 0.006600 0.907700
vn -0.419600 -0.006600 0.907700
vn -0.904600 0.007600 -0.426300
vn -0.000000 -0.000000 -1.000000
vn 0.904600 -0.007600 -0.426300
vn 0.142500 0.696000 0.703800
vn 0.365500 0.825100 0.430700
vn 0.047500 0.967600 0.248000
vn -0.425200 0.758200 0.494400
vn -0.123800 0.770800 0.625000
vn -0.128800 0.979300 0.156400
vn -0.425200 0.758200 -0.494400
vn -0.493500 0.869700 0.000000
vn -0.128800 0.979300 -0.156400
vn 0.142500 0.696000 -0.703800
vn -0.123800 0.770800 -0.625000
vn 0.047500 0.967600 -0.248000
vn 0.587200 0.809500 -0.000000
vn 0.365500 0.825100 -0.430700
vn 0.159600 0.987200 -0.000000
vn -0.001500 1.000000 -0.000000
usemtl mat_blitz
s 1
f 1/1/1 2/2/2 3/3/3 4/4/4
f 5/5/5 6/6/6 2/7/2 1/8/1
f 7/9/7 8/10/8 6/11/6 5/12/5
f 4/13/4 3/14/3 8/15/8 7/16/7
f 2/17/2 9/18/9 10/19/10 3/20/3
f 6/21/6 11/22/11 9/23/9 2/24/2
f 8/25/8 12/26/12 11/27/11 6/28/6
f 3/29/3 10/30/10 12/31/12 8/32/8
f 9/33/9 13/34/13 14/35/14 10/36/10
f 11/37/11 15/38/15 13/39/13 9/40/9
f 12/41/12 16/42/16 15/43/15 11/44/11
f 10/45/10 14/46/14 16/47/16 12/48/12
f 17/49/17 18/50/18 19/51/19 20/52/20
f 21/53/21 22/54/22 18/55/18 17/56/17
f 23/57/23 24/58/24 22/59/22 21/60/21
f 20/61/20 19/62/19 24/63/24 23/64/23
f 18/65/18 25/66/25 26/67/26 19/68/19
f 22/69/22 27/70/27 25/71/25 18/72/18
f 24/73/24 28/74/28 27/75/27 22/76/22
f 19/77/19 26/78/26 28/79/28 24/80/24
f 25/81/25 29/82/29 30/83/30 26/84/26
f 27/85/27 31/86/31 29/87/29 25/88/25
f 28/89/28 32/90/32 31/91/31 27/92/27
f 26/93/26 30/94/30 32/95/32 28/96/28
f 33/97/33 34/98/34 35/99/35 36/100/36
f 37/101/37 38/102/38 34/103/34 33/104/33
f 39/105/39 40/106/40 38/107/38 37/108/37
f 36/109/36 35/110/35 40/111/40 39/112/39
f 34/113/34 41/114/41 42/115/42 35/116/35
f 38/117/38 43/118/43 41/119/41 34/120/34
f 40/121/40 44/122/44 43/123/43 38/124/38
f 35/125/35 42/126/42 44/127/44 40/128/40
f 41/129/41 45/130/45 46/131/46 42/132/42
f 43/133/43 47/134/47 45/135/45 41/136/41
f 44/137/44 48/138/48 47/139/47 43/140/43
f 42/141/42 46/142/46 48/143/48 44/144/44
f 49/145/49 50/146/50 51/147/51 52/148/52
f 53/149/53 54/150/54 50/151/50 49/152/49
f 55/153/55 56/154/56 54/155/54 53/156/53
f 52/157/52 51/158/51 56/159/56 55/160/55
f 50/161/50 57/162/57 58/163/58 51/164/51
f 54/165/54 59/166/59 57/167/57 50/168/50
f 56/169/56 60/170/60 59/171/59 54/172/54
f 51/173/51 58/174/58 60/175/60 56/176/56
f 57/177/57 61/178/61 62/179/62 58/180/58
f 59/181/59 63/182/63 61/183/61 57/184/57
f 60/185/60 64/186/64 63/187/63 59/188/59
f 58/189/58 62/190/62 64/191/64 60/192/60
f 65/193/65 66/194/66 67/195/67 68/196/68
f 69/197/69 70/198/70 66/199/66 65/200/65
f 71/201/71 72/202/72 70/203/70 69/204/69
f 68/205/68 67/206/67 72/207/72 71/208/71
f 66/209/66 73/210/73 74/211/74 67/212/67
f 70/213/70 75/214/75 73/215/73 66/216/66
f 72/217/72 76/218/76 75/219/75 70/220/70
f 67/221/67 74/222/74 76/223/76 72/224/72
f 73/225/73 77/226/77 78/227/78 74/228/74
f 75/229/75 79/230/79 77/231/77 73/232/73
f 76/233/76 80/234/80 79/235/79 75/236/75
f 74/237/74 78/238/78 80/239/80 76/240/76
f 81/241/81 94/241/82 93/241/83
f 82/241/84 94/241/82 96/241/85
f 81/241/81 93/241/83 98/241/86
f 81/241/81 98/241/86 100/241/87
f 81/241/81 100/241/87 97/241/88
f 82/241/84 96/241/85 103/241/89
f 83/241/90 95/241/91 105/241/92
f 84/241/93 99/241/94 107/241/95
f 85/241/96 101/241/97 109/241/98
f 86/241/99 102/241/100 111/241/101
f 82/241/84 103/241/89 106/241/102
f 83/241/90 105/241/92 108/241/103
f 84/241/93 107/241/95 110/241/104
f 85/241/96 109/241/98 112/241/105
f 86/241/99 111/241/101 104/241/106
f 87/241/107 113/241/108 118/241/109
f 88/241/110 114/241/111 120/241/112
f 89/241/113 115/241/114 121/241/115
f 90/241/116 116/241/117 122/241/118
f 91/241/119 117/241/120 119/241/121
f 119/241/121 122/241/118 92/241/122
f 119/241/121 117/241/120 122/241/118
f 117/241/120 90/241/116 122/241/118
f 122/241/118 121/241/115 92/241/122
f 122/241/118 116/241/117 121/241/115
f 116/241/117 89/241/113 121/241/115
f 121/241/115 120/241/112 92/241/122
f 121/241/115 115/241/114 120/241/112
f 115/241/114 88/241/110 120/241/112
f 120/241/112 118/241/109 92/241/122
f 120/241/112 114/241/111 118/241/109
f 114/241/111 87/241/107 118/241/109
f 118/241/109 119/241/121 92/241/122
f 118/241/109 113/241/108 119/241/121
f 113/241/108 91/241/119 119/241/121
f 104/241/106 117/241/120 91/241/119
f 104/241/106 111/241/101 117/241/120
f 111/241/101 90/241/116 117/241/120
f 112/241/105 116/241/117 90/241/116
f 112/241/105 109/241/98 116/241/117
f 109/241/98 89/241/113 116/241/117
f 110/241/104 115/241/114 89/241/113
f 110/241/104 107/241/95 115/241/114
f 107/241/95 88/241/110 115/241/114
f 108/241/103 114/241/111 88/241/110
f 108/241/103 105/241/92 114/241/111
f 105/241/92 87/241/107 114/241/111
f 106/241/102 113/241/108 87/241/107
f 106/241/102 103/241/89 113/241/108
f 103/241/89 91/241/119 113/241/108
f 111/241/101 112/241/105 90/241/116
f 111/241/101 102/241/100 112/241/105
f 102/241/100 85/241/96 112/241/105
f 109/241/98 110/241/104 89/241/113
f 109/241/98 101/241/97 110/241/104
f 101/241/97 84/241/93 110/241/104
f 107/241/95 108/241/103 88/241/110
f 107/241/95 99/241/94 108/241/103
f 99/241/94 83/241/90 108/241/103
f 105/241/92 106/241/102 87/241/107
f 105/241/92 95/241/91 106/241/102
f 95/241/91 82/241/84 106/241/102
f 103/241/89 104/241/106 91/241/119
f 103/241/89 96/241/85 104/241/106
f 96/241/85 86/241/99 104/241/106
f 97/241/88 102/241/100 86/241/99
f 97/241/88 100/241/87 102/241/100
f 100/241/87 85/241/96 102/241/100
f 100/241/87 101/241/97 85/241/96
f 100/241/87 98/241/86 101/241/97
f 98/241/86 84/241/93 101/241/97
f 98/241/86 99/241/94 84/241/93
f 98/241/86 93/241/83 99/241/94
f 93/241/83 83/241/90 99/241/94
f 96/241/85 97/241/88 86/241/99
f 96/241/85 94/241/82 97/241/88
f 94/241/82 81/241/81 97/241/88
f 93/241/83 95/241/91 83/241/90
f 93/241/83 94/241/82 95/241/91
f 94/241/82 82/241/84 95/241/91
