# 3ds Max Wavefront OBJ Exporter v0.97b - (c)2007 guruware
# File Created: 06.01.2015 16:07:29

#
# object Terrain_Berg
#

v  -0.3750 0.0000 0.3750
v  -0.3750 0.0000 0.2500
v  -0.5000 0.0000 0.2500
v  -0.5000 0.0000 0.3750
v  -0.3750 0.0000 0.5000
v  -0.5000 0.0000 0.5000
v  -0.2500 0.0000 0.5000
v  -0.2500 0.0000 0.3750
v  -0.2500 0.0335 0.2500
v  -0.1250 0.0004 0.3750
v  -0.1250 0.1955 0.2500
v  -0.1250 0.0000 0.5000
v  0.0000 0.0000 0.5000
v  0.0000 0.0101 0.3750
v  0.0000 0.2844 0.2500
v  0.1250 0.0004 0.3750
v  0.1250 0.1955 0.2500
v  0.1250 0.0000 0.5000
v  0.2500 0.0000 0.5000
v  0.2500 0.0000 0.3750
v  0.2500 0.0335 0.2500
v  0.3750 0.0000 0.3750
v  0.3750 0.0000 0.2500
v  0.3750 0.0000 0.5000
v  0.5000 0.0000 0.5000
v  0.5000 0.0000 0.3750
v  0.5000 0.0000 0.2500
v  -0.3750 0.0004 0.1250
v  -0.3750 0.0101 -0.0000
v  -0.5000 0.0000 -0.0000
v  -0.5000 0.0000 0.1250
v  -0.2500 0.1955 0.1250
v  -0.2500 0.2844 -0.0000
v  -0.1250 0.5273 0.1250
v  -0.1250 0.6903 -0.0000
v  0.0000 0.6903 0.1250
v  0.0000 0.8988 -0.0000
v  0.1250 0.5273 0.1250
v  0.1250 0.6903 -0.0000
v  0.2500 0.1955 0.1250
v  0.2500 0.2844 -0.0000
v  0.3750 0.0004 0.1250
v  0.3750 0.0101 -0.0000
v  0.5000 0.0000 0.1250
v  0.5000 0.0000 -0.0000
v  -0.3750 0.0004 -0.1250
v  -0.3750 0.0000 -0.2500
v  -0.5000 0.0000 -0.2500
v  -0.5000 0.0000 -0.1250
v  -0.2500 0.1955 -0.1250
v  -0.2500 0.0335 -0.2500
v  -0.1250 0.5273 -0.1250
v  -0.1250 0.1955 -0.2500
v  0.0000 0.6903 -0.1250
v  0.0000 0.2844 -0.2500
v  0.1250 0.5273 -0.1250
v  0.1250 0.1955 -0.2500
v  0.2500 0.1955 -0.1250
v  0.2500 0.0335 -0.2500
v  0.3750 0.0004 -0.1250
v  0.3750 0.0000 -0.2500
v  0.5000 0.0000 -0.1250
v  0.5000 0.0000 -0.2500
v  -0.3750 0.0000 -0.3750
v  -0.3750 0.0000 -0.5000
v  -0.5000 0.0000 -0.5000
v  -0.5000 0.0000 -0.3750
v  -0.2500 0.0000 -0.3750
v  -0.2500 0.0000 -0.5000
v  -0.1250 0.0004 -0.3750
v  -0.1250 0.0000 -0.5000
v  0.0000 0.0101 -0.3750
v  0.0000 0.0000 -0.5000
v  0.1250 0.0004 -0.3750
v  0.1250 0.0000 -0.5000
v  0.2500 0.0000 -0.3750
v  0.2500 0.0000 -0.5000
v  0.3750 0.0000 -0.3750
v  0.3750 0.0000 -0.5000
v  0.5000 0.0000 -0.3750
v  0.5000 0.0000 -0.5000
# 81 vertices

vn 0.0000 1.0000 -0.0000
vn -0.0985 0.9946 0.0340
vn -0.0340 0.9946 0.0985
vn -0.4659 0.7522 0.4659
vn -0.1250 0.9103 0.3947
vn -0.4527 0.4049 0.7944
vn -0.0007 1.0000 0.0022
vn -0.0194 0.9979 0.0611
vn -0.0369 0.8299 0.5567
vn -0.0292 0.3617 0.9319
vn 0.0577 0.8659 0.4968
vn 0.3844 0.4304 0.8167
vn 0.0194 0.9996 0.0224
vn 0.0007 1.0000 0.0007
vn 0.1139 0.9634 0.2428
vn 0.4701 0.7470 0.4701
vn 0.0332 0.9989 0.0332
vn 0.2428 0.9634 0.1139
vn -0.3947 0.9103 0.1250
vn -0.5567 0.8299 0.0369
vn -0.0611 0.9979 0.0194
vn -0.0022 1.0000 0.0007
vn -0.7944 0.4049 0.4527
vn -0.9319 0.3617 0.0292
vn -0.6665 0.3339 0.6665
vn -0.8760 0.4807 0.0392
vn -0.0392 0.4807 0.8760
vn 0.6622 0.3506 0.6622
vn 0.8760 0.4807 -0.0392
vn 0.8167 0.4304 0.3844
vn 0.9319 0.3617 -0.0292
vn 0.4968 0.8659 0.0577
vn 0.5567 0.8299 -0.0369
vn 0.0224 0.9996 0.0194
vn 0.0611 0.9979 -0.0194
vn -0.4968 0.8659 -0.0577
vn -0.2428 0.9634 -0.1139
vn -0.0007 1.0000 -0.0007
vn -0.0224 0.9996 -0.0194
vn -0.8167 0.4304 -0.3844
vn -0.4701 0.7470 -0.4701
vn -0.6622 0.3506 -0.6622
vn -0.3844 0.4304 -0.8167
vn 0.0392 0.4807 -0.8760
vn 0.0292 0.3617 -0.9319
vn 0.6665 0.3339 -0.6665
vn 0.4527 0.4049 -0.7944
vn 0.7944 0.4049 -0.4527
vn 0.4659 0.7522 -0.4659
vn 0.3947 0.9103 -0.1250
vn 0.0985 0.9946 -0.0340
vn 0.0022 1.0000 -0.0007
vn -0.0332 0.9989 -0.0332
vn -0.1139 0.9634 -0.2428
vn -0.0577 0.8659 -0.4968
vn -0.0194 0.9996 -0.0224
vn 0.0369 0.8299 -0.5567
vn 0.0194 0.9979 -0.0611
vn 0.1250 0.9103 -0.3947
vn 0.0007 1.0000 -0.0022
vn 0.0340 0.9946 -0.0985
# 61 vertex normals

vt 0.1365 0.1365 0.0000
vt 0.1365 0.2577 0.0000
vt 0.0154 0.2577 0.0000
vt 0.0154 0.1365 0.0000
vt 0.1365 0.0154 0.0000
vt 0.0154 0.0154 0.0000
vt 0.2577 0.0154 0.0000
vt 0.2577 0.1365 0.0000
vt 0.2577 0.2577 0.0000
vt 0.3788 0.1365 0.0000
vt 0.3788 0.2577 0.0000
vt 0.3788 0.0154 0.0000
vt 0.5000 0.0154 0.0000
vt 0.5000 0.1365 0.0000
vt 0.5000 0.2577 0.0000
vt 0.6212 0.1365 0.0000
vt 0.6212 0.2577 0.0000
vt 0.6212 0.0154 0.0000
vt 0.7423 0.0154 0.0000
vt 0.7423 0.1365 0.0000
vt 0.7423 0.2577 0.0000
vt 0.8635 0.1365 0.0000
vt 0.8635 0.2577 0.0000
vt 0.8635 0.0154 0.0000
vt 0.9846 0.0154 0.0000
vt 0.9846 0.1365 0.0000
vt 0.9846 0.2577 0.0000
vt 0.1365 0.3788 0.0000
vt 0.1365 0.5000 0.0000
vt 0.0154 0.5000 0.0000
vt 0.0154 0.3788 0.0000
vt 0.2577 0.3788 0.0000
vt 0.2577 0.5000 0.0000
vt 0.3788 0.3788 0.0000
vt 0.3788 0.5000 0.0000
vt 0.5000 0.3788 0.0000
vt 0.5000 0.5000 0.0000
vt 0.6212 0.3788 0.0000
vt 0.6212 0.5000 0.0000
vt 0.7423 0.3788 0.0000
vt 0.7423 0.5000 0.0000
vt 0.8635 0.3788 0.0000
vt 0.8635 0.5000 0.0000
vt 0.9846 0.3788 0.0000
vt 0.9846 0.5000 0.0000
vt 0.1365 0.6212 0.0000
vt 0.1365 0.7423 0.0000
vt 0.0154 0.7423 0.0000
vt 0.0154 0.6212 0.0000
vt 0.2577 0.6212 0.0000
vt 0.2577 0.7423 0.0000
vt 0.3788 0.6212 0.0000
vt 0.3788 0.7423 0.0000
vt 0.5000 0.6212 0.0000
vt 0.5000 0.7423 0.0000
vt 0.6212 0.6212 0.0000
vt 0.6212 0.7423 0.0000
vt 0.7423 0.6212 0.0000
vt 0.7423 0.7423 0.0000
vt 0.8635 0.6212 0.0000
vt 0.8635 0.7423 0.0000
vt 0.9846 0.6212 0.0000
vt 0.9846 0.7423 0.0000
vt 0.1365 0.8635 0.0000
vt 0.1365 0.9846 0.0000
vt 0.0154 0.9846 0.0000
vt 0.0154 0.8635 0.0000
vt 0.2577 0.8635 0.0000
vt 0.2577 0.9846 0.0000
vt 0.3788 0.8635 0.0000
vt 0.3788 0.9846 0.0000
vt 0.5000 0.8635 0.0000
vt 0.5000 0.9846 0.0000
vt 0.6212 0.8635 0.0000
vt 0.6212 0.9846 0.0000
vt 0.7423 0.8635 0.0000
vt 0.7423 0.9846 0.0000
vt 0.8635 0.8635 0.0000
vt 0.8635 0.9846 0.0000
vt 0.9846 0.8635 0.0000
vt 0.9846 0.9846 0.0000
# 81 texture coords

g Terrain_Berg
s 2
f 1/1/1 2/2/2 3/3/1 4/4/1 
f 5/5/1 1/1/1 4/4/1 6/6/1 
f 1/1/1 5/5/1 7/7/1 8/8/3 
f 2/2/2 1/1/1 8/8/3 9/9/4 
f 10/10/5 11/11/6 9/9/4 8/8/3 
f 12/12/7 10/10/5 8/8/3 7/7/1 
f 10/10/5 12/12/7 13/13/8 14/14/9 
f 11/11/6 10/10/5 14/14/9 15/15/10 
f 16/16/11 17/17/12 15/15/10 14/14/9 
f 18/18/13 16/16/11 14/14/9 13/13/8 
f 16/16/11 18/18/13 19/19/14 20/20/15 
f 17/17/12 16/16/11 20/20/15 21/21/16 
f 22/22/17 23/23/18 21/21/16 20/20/15 
f 24/24/1 22/22/17 20/20/15 19/19/14 
f 22/22/17 24/24/1 25/25/1 26/26/1 
f 23/23/18 22/22/17 26/26/1 27/27/14 
f 28/28/19 29/29/20 30/30/21 31/31/22 
f 2/2/2 28/28/19 31/31/22 3/3/1 
f 28/28/19 2/2/2 9/9/4 32/32/23 
f 29/29/20 28/28/19 32/32/23 33/33/24 
f 34/34/25 35/35/26 33/33/24 32/32/23 
f 11/11/6 34/34/25 32/32/23 9/9/4 
f 34/34/25 11/11/6 15/15/10 36/36/27 
f 35/35/26 34/34/25 36/36/27 37/37/1 
f 38/38/28 39/39/29 37/37/1 36/36/27 
f 17/17/12 38/38/28 36/36/27 15/15/10 
f 38/38/28 17/17/12 21/21/16 40/40/30 
f 39/39/29 38/38/28 40/40/30 41/41/31 
f 42/42/32 43/43/33 41/41/31 40/40/30 
f 23/23/18 42/42/32 40/40/30 21/21/16 
f 42/42/32 23/23/18 27/27/14 44/44/34 
f 43/43/33 42/42/32 44/44/34 45/45/35 
f 46/46/36 47/47/37 48/48/38 49/49/39 
f 29/29/20 46/46/36 49/49/39 30/30/21 
f 46/46/36 29/29/20 33/33/24 50/50/40 
f 47/47/37 46/46/36 50/50/40 51/51/41 
f 52/52/42 53/53/43 51/51/41 50/50/40 
f 35/35/26 52/52/42 50/50/40 33/33/24 
f 52/52/42 35/35/26 37/37/1 54/54/44 
f 53/53/43 52/52/42 54/54/44 55/55/45 
f 56/56/46 57/57/47 55/55/45 54/54/44 
f 39/39/29 56/56/46 54/54/44 37/37/1 
f 56/56/46 39/39/29 41/41/31 58/58/48 
f 57/57/47 56/56/46 58/58/48 59/59/49 
f 60/60/50 61/61/51 59/59/49 58/58/48 
f 43/43/33 60/60/50 58/58/48 41/41/31 
f 60/60/50 43/43/33 45/45/35 62/62/52 
f 61/61/51 60/60/50 62/62/52 63/63/1 
f 64/64/53 65/65/1 66/66/1 67/67/1 
f 47/47/37 64/64/53 67/67/1 48/48/38 
f 64/64/53 47/47/37 51/51/41 68/68/54 
f 65/65/1 64/64/53 68/68/54 69/69/38 
f 70/70/55 71/71/56 69/69/38 68/68/54 
f 53/53/43 70/70/55 68/68/54 51/51/41 
f 70/70/55 53/53/43 55/55/45 72/72/57 
f 71/71/56 70/70/55 72/72/57 73/73/58 
f 74/74/59 75/75/60 73/73/58 72/72/57 
f 57/57/47 74/74/59 72/72/57 55/55/45 
f 74/74/59 57/57/47 59/59/49 76/76/61 
f 75/75/60 74/74/59 76/76/61 77/77/1 
f 78/78/1 79/79/1 77/77/1 76/76/61 
f 61/61/51 78/78/1 76/76/61 59/59/49 
f 78/78/1 61/61/51 63/63/1 80/80/1 
f 79/79/1 78/78/1 80/80/1 81/81/1 
# 64 polygons

