# 3ds Max Wavefront OBJ Exporter v0.97b - (c)2007 guruware
# File Created: 06.01.2015 16:05:06

#
# object Terrain_Boden
#

v  -0.3750 0.0040 0.3750
v  -0.3750 0.0339 0.2500
v  -0.5000 0.0000 0.2500
v  -0.5000 0.0000 0.3750
v  -0.3750 0.0000 0.5000
v  -0.5000 0.0000 0.5000
v  -0.2500 0.0000 0.5000
v  -0.2500 0.0339 0.3750
v  -0.2500 0.1070 0.2500
v  -0.1250 0.0040 0.3750
v  -0.1250 0.0348 0.2500
v  -0.1250 0.0000 0.5000
v  0.0000 0.0000 0.5000
v  0.0000 0.0000 0.3750
v  0.0000 0.0054 0.2500
v  0.1250 0.0000 0.3750
v  0.1250 0.0010 0.2500
v  0.1250 0.0000 0.5000
v  0.2500 0.0000 0.5000
v  0.2500 0.0000 0.3750
v  0.2500 0.0728 0.2500
v  0.3750 0.0000 0.3750
v  0.3750 0.0000 0.2500
v  0.3750 0.0000 0.5000
v  0.5000 0.0000 0.5000
v  0.5000 0.0000 0.3750
v  0.5000 0.0000 0.2500
v  -0.3750 0.0040 0.1250
v  -0.3750 0.0027 -0.0000
v  -0.5000 0.0000 -0.0000
v  -0.5000 0.0000 0.1250
v  -0.2500 0.0348 0.1250
v  -0.2500 0.0280 -0.0000
v  -0.1250 0.0304 0.1250
v  -0.1250 0.0478 -0.0000
v  0.0000 0.0463 0.1250
v  0.0000 0.0805 -0.0000
v  0.1250 0.0294 0.1250
v  0.1250 0.0275 -0.0000
v  0.2500 0.0014 0.1250
v  0.2500 0.0141 -0.0000
v  0.3750 0.0000 0.1250
v  0.3750 0.0004 -0.0000
v  0.5000 0.0000 0.1250
v  0.5000 0.0000 -0.0000
v  -0.3750 0.0226 -0.1250
v  -0.3750 0.0027 -0.2500
v  -0.5000 0.0000 -0.2500
v  -0.5000 0.0000 -0.1250
v  -0.2500 0.0725 -0.1250
v  -0.2500 0.0226 -0.2500
v  -0.1250 0.0504 -0.1250
v  -0.1250 0.0040 -0.2500
v  0.0000 0.0275 -0.1250
v  0.0000 0.0141 -0.2500
v  0.1250 -0.0614 -0.1250
v  0.1250 0.0104 -0.2500
v  0.2500 0.0104 -0.1250
v  0.2500 0.0860 -0.2500
v  0.3750 0.0051 -0.1250
v  0.3750 0.0246 -0.2500
v  0.5000 0.0000 -0.1250
v  0.5000 0.0000 -0.2500
v  -0.3750 0.0000 -0.3750
v  -0.3750 0.0000 -0.5000
v  -0.5000 0.0000 -0.5000
v  -0.5000 0.0000 -0.3750
v  -0.2500 0.0000 -0.3750
v  -0.2500 0.0000 -0.5000
v  -0.1250 0.0000 -0.3750
v  -0.1250 0.0000 -0.5000
v  0.0000 0.0004 -0.3750
v  0.0000 0.0000 -0.5000
v  0.1250 0.0051 -0.3750
v  0.1250 0.0000 -0.5000
v  0.2500 0.0246 -0.3750
v  0.2500 0.0000 -0.5000
v  0.3750 0.0028 -0.3750
v  0.3750 0.0000 -0.5000
v  0.5000 0.0000 -0.3750
v  0.5000 0.0000 -0.5000
# 81 vertices

vn -0.1304 0.9828 0.1304
vn -0.3307 0.9413 0.0674
vn -0.2049 0.9771 0.0582
vn -0.0240 0.9997 0.0080
vn -0.0080 0.9997 0.0240
vn 0.0000 1.0000 -0.0000
vn -0.0582 0.9771 0.2049
vn -0.0674 0.9413 0.3307
vn -0.0025 1.0000 0.0025
vn 0.1599 0.9735 0.1636
vn 0.2931 0.9560 0.0128
vn 0.0589 0.9941 0.0908
vn 0.0080 0.9999 0.0080
vn 0.0409 0.9981 0.0467
vn 0.0853 0.9876 0.1314
vn 0.0045 1.0000 0.0084
vn -0.1564 0.9695 0.1886
vn -0.0661 0.9782 0.1970
vn 0.0298 0.9991 0.0307
vn 0.0693 0.9952 0.0693
vn 0.1974 0.9781 -0.0657
vn -0.1664 0.9743 -0.1520
vn -0.1348 0.9897 0.0477
vn -0.0240 0.9997 -0.0027
vn -0.0908 0.9941 -0.0589
vn -0.0328 0.9735 -0.2265
vn -0.1756 0.9743 0.1411
vn -0.0239 0.9971 0.0721
vn -0.1470 0.9797 0.1366
vn -0.0238 0.9653 0.2601
vn 0.0857 0.9954 -0.0417
vn 0.1144 0.9926 0.0414
vn 0.2924 0.9191 -0.2642
vn 0.1622 0.9755 -0.1488
vn 0.0146 0.9982 -0.0580
vn 0.0178 0.9997 0.0138
vn 0.0475 0.9988 0.0116
vn 0.0007 1.0000 0.0007
vn 0.0124 0.9999 0.0094
vn -0.2370 0.9706 0.0426
vn -0.1130 0.9871 -0.1130
vn -0.0610 0.9973 -0.0397
vn -0.1392 0.9895 0.0394
vn -0.1121 0.9931 -0.0350
vn 0.0169 0.9664 -0.2564
vn 0.1152 0.9682 -0.2222
vn 0.0441 0.9831 -0.1779
vn 0.3222 0.8970 -0.3025
vn 0.0660 0.9977 -0.0173
vn 0.0385 0.9985 -0.0385
vn -0.2650 0.9350 0.2358
vn -0.2358 0.9350 0.2650
vn -0.0367 0.9987 0.0367
vn 0.0874 0.9860 0.1418
vn 0.2702 0.9606 -0.0649
vn 0.0793 0.9961 0.0387
vn 0.1507 0.9876 -0.0429
vn -0.0198 0.9993 -0.0305
vn -0.0053 1.0000 -0.0053
vn 0.0184 0.9973 -0.0711
vn -0.0112 0.9996 -0.0258
vn -0.0007 1.0000 -0.0007
vn -0.0116 0.9988 -0.0475
vn -0.0094 0.9999 -0.0124
vn -0.1418 0.9860 -0.0874
vn -0.0387 0.9961 -0.0793
vn 0.0649 0.9606 -0.2702
vn 0.0429 0.9876 -0.1507
vn 0.0964 0.9907 -0.0964
vn 0.0056 0.9998 -0.0169
vn 0.0169 0.9998 -0.0056
# 71 vertex normals

vt 0.1327 0.1327 0.0000
vt 0.1327 0.2551 0.0000
vt 0.0102 0.2551 0.0000
vt 0.0102 0.1327 0.0000
vt 0.1327 0.0102 0.0000
vt 0.0102 0.0102 0.0000
vt 0.2551 0.0102 0.0000
vt 0.2551 0.1327 0.0000
vt 0.2551 0.2551 0.0000
vt 0.3776 0.1327 0.0000
vt 0.3776 0.2551 0.0000
vt 0.3776 0.0102 0.0000
vt 0.5000 0.0102 0.0000
vt 0.5000 0.1327 0.0000
vt 0.5000 0.2551 0.0000
vt 0.6224 0.1327 0.0000
vt 0.6224 0.2551 0.0000
vt 0.6224 0.0102 0.0000
vt 0.7449 0.0102 0.0000
vt 0.7449 0.1327 0.0000
vt 0.7449 0.2551 0.0000
vt 0.8673 0.1327 0.0000
vt 0.8673 0.2551 0.0000
vt 0.8673 0.0102 0.0000
vt 0.9898 0.0102 0.0000
vt 0.9898 0.1327 0.0000
vt 0.9898 0.2551 0.0000
vt 0.1327 0.3776 0.0000
vt 0.1327 0.5000 0.0000
vt 0.0102 0.5000 0.0000
vt 0.0102 0.3776 0.0000
vt 0.2551 0.3776 0.0000
vt 0.2551 0.5000 0.0000
vt 0.3776 0.3776 0.0000
vt 0.3776 0.5000 0.0000
vt 0.5000 0.3776 0.0000
vt 0.5000 0.5000 0.0000
vt 0.6224 0.3776 0.0000
vt 0.6224 0.5000 0.0000
vt 0.7449 0.3776 0.0000
vt 0.7449 0.5000 0.0000
vt 0.8673 0.3776 0.0000
vt 0.8673 0.5000 0.0000
vt 0.9898 0.3776 0.0000
vt 0.9898 0.5000 0.0000
vt 0.1327 0.6224 0.0000
vt 0.1327 0.7449 0.0000
vt 0.0102 0.7449 0.0000
vt 0.0102 0.6224 0.0000
vt 0.2551 0.6224 0.0000
vt 0.2551 0.7449 0.0000
vt 0.3776 0.6224 0.0000
vt 0.3776 0.7449 0.0000
vt 0.5000 0.6224 0.0000
vt 0.5000 0.7449 0.0000
vt 0.6224 0.6224 0.0000
vt 0.6224 0.7449 0.0000
vt 0.7449 0.6224 0.0000
vt 0.7449 0.7449 0.0000
vt 0.8673 0.6224 0.0000
vt 0.8673 0.7449 0.0000
vt 0.9898 0.6224 0.0000
vt 0.9898 0.7449 0.0000
vt 0.1327 0.8673 0.0000
vt 0.1327 0.9898 0.0000
vt 0.0102 0.9898 0.0000
vt 0.0102 0.8673 0.0000
vt 0.2551 0.8673 0.0000
vt 0.2551 0.9898 0.0000
vt 0.3776 0.8673 0.0000
vt 0.3776 0.9898 0.0000
vt 0.5000 0.8673 0.0000
vt 0.5000 0.9898 0.0000
vt 0.6224 0.8673 0.0000
vt 0.6224 0.9898 0.0000
vt 0.7449 0.8673 0.0000
vt 0.7449 0.9898 0.0000
vt 0.8673 0.8673 0.0000
vt 0.8673 0.9898 0.0000
vt 0.9898 0.8673 0.0000
vt 0.9898 0.9898 0.0000
# 81 texture coords

g Terrain_Boden
s 2
f 1/1/1 2/2/2 3/3/3 4/4/4 
f 5/5/5 1/1/1 4/4/4 6/6/6 
f 1/1/1 5/5/5 7/7/7 8/8/8 
f 2/2/2 1/1/1 8/8/8 9/9/9 
f 10/10/10 11/11/11 9/9/9 8/8/8 
f 12/12/12 10/10/10 8/8/8 7/7/7 
f 10/10/10 12/12/12 13/13/13 14/14/14 
f 11/11/11 10/10/10 14/14/14 15/15/15 
f 16/16/16 17/17/17 15/15/15 14/14/14 
f 18/18/6 16/16/16 14/14/14 13/13/13 
f 16/16/16 18/18/6 19/19/6 20/20/18 
f 17/17/17 16/16/16 20/20/18 21/21/19 
f 22/22/20 23/23/21 21/21/19 20/20/18 
f 24/24/6 22/22/20 20/20/18 19/19/6 
f 22/22/20 24/24/6 25/25/6 26/26/6 
f 23/23/21 22/22/20 26/26/6 27/27/6 
f 28/28/22 29/29/23 30/30/24 31/31/25 
f 2/2/2 28/28/22 31/31/25 3/3/3 
f 28/28/22 2/2/2 9/9/9 32/32/26 
f 29/29/23 28/28/22 32/32/26 33/33/27 
f 34/34/28 35/35/29 33/33/27 32/32/26 
f 11/11/11 34/34/28 32/32/26 9/9/9 
f 34/34/28 11/11/11 15/15/15 36/36/30 
f 35/35/29 34/34/28 36/36/30 37/37/31 
f 38/38/32 39/39/33 37/37/31 36/36/30 
f 17/17/17 38/38/32 36/36/30 15/15/15 
f 38/38/32 17/17/17 21/21/19 40/40/34 
f 39/39/33 38/38/32 40/40/34 41/41/35 
f 42/42/36 43/43/37 41/41/35 40/40/34 
f 23/23/21 42/42/36 40/40/34 21/21/19 
f 42/42/36 23/23/21 27/27/6 44/44/38 
f 43/43/37 42/42/36 44/44/38 45/45/39 
f 46/46/40 47/47/41 48/48/42 49/49/43 
f 29/29/23 46/46/40 49/49/43 30/30/24 
f 46/46/40 29/29/23 33/33/27 50/50/44 
f 47/47/41 46/46/40 50/50/44 51/51/45 
f 52/52/46 53/53/47 51/51/45 50/50/44 
f 35/35/29 52/52/46 50/50/44 33/33/27 
f 52/52/46 35/35/29 37/37/31 54/54/48 
f 53/53/47 52/52/46 54/54/48 55/55/49 
f 56/56/50 57/57/51 55/55/49 54/54/48 
f 39/39/33 56/56/50 54/54/48 37/37/31 
f 56/56/50 39/39/33 41/41/35 58/58/52 
f 57/57/51 56/56/50 58/58/52 59/59/53 
f 60/60/54 61/61/55 59/59/53 58/58/52 
f 43/43/37 60/60/54 58/58/52 41/41/35 
f 60/60/54 43/43/37 45/45/39 62/62/56 
f 61/61/55 60/60/54 62/62/56 63/63/57 
f 64/64/58 65/65/6 66/66/6 67/67/59 
f 47/47/41 64/64/58 67/67/59 48/48/42 
f 64/64/58 47/47/41 51/51/45 68/68/60 
f 65/65/6 64/64/58 68/68/60 69/69/6 
f 70/70/61 71/71/62 69/69/6 68/68/60 
f 53/53/47 70/70/61 68/68/60 51/51/45 
f 70/70/61 53/53/47 55/55/49 72/72/63 
f 71/71/62 70/70/61 72/72/63 73/73/64 
f 74/74/65 75/75/66 73/73/64 72/72/63 
f 57/57/51 74/74/65 72/72/63 55/55/49 
f 74/74/65 57/57/51 59/59/53 76/76/67 
f 75/75/66 74/74/65 76/76/67 77/77/68 
f 78/78/69 79/79/70 77/77/68 76/76/67 
f 61/61/55 78/78/69 76/76/67 59/59/53 
f 78/78/69 61/61/55 63/63/57 80/80/71 
f 79/79/70 78/78/69 80/80/71 81/81/6 
# 64 polygons

